<?xml version="1.0" standalone="no"?>
<!DOCTYPE svg PUBLIC "-//W3C//DTD SVG 20010904//EN"
 "http://www.w3.org/TR/2001/REC-SVG-20010904/DTD/svg10.dtd">
<svg version="1.0" xmlns="http://www.w3.org/2000/svg"
 width="246.000000pt" height="60.000000pt" viewBox="0 0 246.000000 60.000000"
 preserveAspectRatio="xMidYMid meet">

<g transform="translate(0.000000,60.000000) scale(0.100000,-0.100000)"
fill="#000000" stroke="none">
<path d="M1196 496 c-37 -68 -52 -86 -74 -90 -15 -3 -56 -11 -92 -17 -36 -7
-67 -13 -69 -15 -2 -2 26 -36 64 -75 58 -62 66 -75 61 -100 -13 -66 -18 -159
-9 -159 5 0 42 16 82 35 39 19 78 35 85 35 7 0 47 -16 89 -35 42 -19 80 -35
85 -35 5 0 3 40 -4 93 -14 103 -21 85 67 180 24 27 45 52 47 56 1 4 -40 15
-91 25 l-94 18 -48 84 c-26 46 -48 84 -50 84 -2 0 -24 -38 -49 -84z"/>
<path d="M642 419 c-40 -76 -51 -84 -130 -98 l-72 -13 53 -61 c52 -62 53 -62
46 -112 -4 -27 -8 -62 -8 -78 l-1 -27 69 35 70 35 70 -32 c39 -17 73 -29 75
-27 2 2 -1 37 -6 78 l-10 73 53 54 c29 29 50 56 48 59 -3 3 -32 10 -65 16 -80
15 -86 19 -123 88 -18 34 -34 61 -37 61 -2 0 -16 -23 -32 -51z"/>
<path d="M1771 410 c-37 -69 -44 -74 -128 -90 -35 -7 -63 -15 -63 -18 0 -4 23
-30 51 -58 l51 -51 -9 -77 c-5 -42 -6 -76 -2 -76 4 0 37 13 73 30 l67 29 64
-31 c35 -18 67 -29 70 -26 4 3 3 37 -2 75 l-9 68 53 61 53 61 -62 12 c-95 18
-93 17 -127 81 -18 33 -36 62 -40 64 -5 3 -23 -21 -40 -54z"/>
<path d="M170 337 c-29 -52 -35 -56 -81 -66 -28 -6 -57 -11 -66 -11 -10 0 0
-17 30 -49 40 -42 46 -55 42 -80 -3 -17 -7 -45 -10 -62 -6 -35 -6 -35 77 -3
l48 18 55 -27 55 -27 -6 58 c-4 31 -8 59 -10 61 -2 2 17 27 41 55 l45 51 -27
6 c-16 4 -44 10 -63 13 -30 5 -40 14 -67 63 l-31 56 -32 -56z"/>
<path d="M2231 336 c-30 -54 -32 -55 -91 -67 -33 -6 -60 -15 -60 -18 0 -4 18
-25 41 -46 l40 -40 -7 -63 c-7 -70 -4 -73 56 -42 50 26 60 25 122 -6 l51 -26
-8 67 -7 67 43 44 c23 24 41 45 38 47 -2 2 -31 10 -64 18 -56 13 -62 17 -85
61 -14 26 -28 50 -32 53 -3 3 -20 -19 -37 -49z"/>
</g>
</svg>
